/* XPM */
static char *b5535ae6767a467ccf40a289af69d4dafoE7iEm241OXOoTd[] = {
/* columns rows colors chars-per-pixel */
"32 32 66 1 ",
"  c #995A3D",
". c #55362C",
"X c #271A15",
"o c #874E37",
"O c #936344",
"+ c #8A4836",
"@ c #D2865B",
"# c #7F4133",
"$ c #824334",
"% c #7A3E31",
"& c #69332C",
"* c #5F2F2A",
"= c #6E372D",
"- c #874635",
"; c #542927",
": c #351E1E",
"> c #783F31",
", c #4C2725",
"< c #402223",
"1 c #2C1C18",
"2 c #2B1B17",
"3 c #4E2D26",
"4 c #3D2120",
"5 c #502824",
"6 c #391F21",
"7 c #492522",
"8 c #3B231C",
"9 c #98523B",
"0 c #B26645",
"q c #66312B",
"w c #854535",
"e c #8C4A37",
"r c #C67B53",
"t c #5D2C28",
"y c #3B2022",
"u c #351F1A",
"i c #602E29",
"p c #94503A",
"a c #DD9162",
"s c #422323",
"d c #71382E",
"f c #2E1C19",
"g c #492524",
"h c #4C2625",
"j c #66362C",
"k c #9D573E",
"l c #A75F42",
"z c #A45E41",
"x c #7C4432",
"c c #AF734E",
"v c #311D1C",
"b c #A16343",
"n c #A85E41",
"m c #83533F",
"M c #BD714C",
"N c #966447",
"B c #743B30",
"V c #3B2120",
"C c #67362D",
"Z c #7E4233",
"A c #BF7D56",
"S c #8F4D39",
"D c #AC6143",
"F c #452424",
"G c #5B332C",
"H c #321E1A",
/* pixels */
"          .Xo            O      ",
"++++++++++@.#++++++++++++ #+++++",
"+++++++++++ #++++++++++++ #+++++",
"++++++$++++ #+++$%&++++++ #+++++",
"++++++$&$++ *&##=++++++++ #+++++",
"+++=--;:;-$ >++++&+++++++ #+&+++",
"++++,<1X2,,2#+++++++++++&34,-+++",
"555;6662X22X755555555555:XX25555",
"::2890q6;w9e99999r:8999999999999",
"ttyu++i&-++&+++++pau++++++++++++",
"ttsu++-+++&+++++++0u+$$+++++++++",
"ttsu++++++#&++++++0u++d$+%%d++++",
"ttsu+++++-+++++++%0u+++%&++%++++",
"ttsu++++++++++++++eu++++#+++++++",
"ttsf$+++++++++++++0u$++#++++++++",
"ttg2h*#######jj###k2h##*########",
"lllz  x   cv           b2X      ",
"+++++-$+++nc#++++++++++pm2#+++++",
"++++%$+++++ #+++++++++++MN#++++&",
"++$&-++++++ #++#+++++++++ #+$B;6",
"+&-+=++++++ #++&+++d+++++ #++#*;",
"=++++++++++ #+d++++$#++++ #+++++",
"++++++++++,2*++++++++$+++3#+++++",
"5555555555VXv555555555555v755555",
"::2XC9wZ9999999999A2S99999999999",
"0DFf$++=++++++++++0u++++++++++++",
"++Gu+++=++++++$+++0u++++++++++#d",
"++0u+++%+++++#++++0u++-++++++++$",
"++0u+-,,-++++$++++0u+$=+++++++++",
"++0u++=<#+++++++++0H#%+d++++++++",
"++0u+++=$+++++++++0X;+++++++++++",
"555255V555555555555Xv55555555555"
};
