/* XPM */
static char *_b9f4081690f45c8d23e93fce925f5b94CsAXFN0IlD7yBLl[] = {
/* columns rows colors chars-per-pixel */
"32 32 2 1 ",
"  c #75C158",
". c #8FE36E",
/* pixels */
"                                ",
" .............................. ",
" .............................. ",
" .............................. ",
" .............................. ",
" .............................. ",
" .............................. ",
" .............................. ",
" .............................. ",
" .............................. ",
" .............................. ",
" .............................. ",
" .............................. ",
" .............................. ",
" .............................. ",
" .............................. ",
" .............................. ",
" .............................. ",
" .............................. ",
" .............................. ",
" .............................. ",
" .............................. ",
" .............................. ",
" .............................. ",
" .............................. ",
" .............................. ",
" .............................. ",
" .............................. ",
" .............................. ",
" .............................. ",
" .............................. ",
"                                "
};
